<svg xmlns="http://www.w3.org/2000/svg" width="519" height="139" viewBox="0 0 519 139"><g fill="#FFF"><path d="M188.35 16.43c11.75-4 22.08 10.99 14.86 20.75-4.37 7.08-15.57 7.79-20.931 1.53-6.399-6.83-3.329-19.96 6.071-22.28m.94 3.84c-7.07 2.27-8.641 12.8-2.521 17.02 5.47 4.71 14.891-.15 14.48-7.27.951-6.35-5.939-12.01-11.959-9.75z"/><path d="M212.83 18.79c5.31-4.33 13.63-3.49 18.34 1.38l-2.41 2.92c-3.26-2.69-7.84-4.56-11.83-2.19-6.65 3.25-6.61 13.92.04 17.16 4.18 2.55 9.05.28 12.32-2.66.89.91 1.779 1.83 2.68 2.74-4.69 5.42-13.47 6.55-19.12 2.03-6.6-4.99-6.62-16.37-.02-21.38zm119.53-2.36c11.73-3.99 22.08 11.01 14.84 20.76-4.359 7.07-15.56 7.78-20.92 1.52-6.4-6.83-3.331-19.96 6.08-22.28m.929 3.84c-7.08 2.27-8.649 12.81-2.52 17.02 5.48 4.71 14.88-.16 14.48-7.27.941-6.33-5.939-12.02-11.96-9.75zM156.76 16.53a770.7 770.7 0 0 1 17.47.01c.05 7.24-.01 14.49.04 21.74.66.11 1.97.33 2.63.45-.029 3.04-.04 6.09-.04 9.13l-3.67.03c-.04-1.88-.1-3.76-.14-5.64h-18.03c-.09 1.85-.21 3.69-.29 5.54-1.189.04-2.39.08-3.58.13-.02-2.99-.029-5.98-.02-8.97 1.88-.45 3.979-1.16 4.47-3.3 1.97-6.17.86-12.76 1.16-19.12m3.83 4.12c.09 5.99.51 12.13-1.54 17.88 3.64-.03 7.29-.03 10.93 0 .25-6.021.24-12.05.01-18.08-3.13.02-6.27.05-9.4.2zm72.82-4.12c6.02-.061 12.05-.04 18.079-.01v3.92c-2.34.05-4.67.1-7 .17.03 7.17-.01 14.35.04 21.52-1.399.02-2.79.03-4.17.05.011-7.18-.02-14.35.03-21.52-2.33-.1-4.66-.17-6.99-.25.001-.97.011-2.91.011-3.88zm19.37.07c1.49-.07 2.99-.14 4.49-.22 2.26 4.54 4.04 9.29 6.26 13.85 3.24-4.65 2.75-15.04 10.391-13.78-3.26 7.79-6.69 15.53-10.37 23.12-1.521 3.45-5.561 3.86-8.74 2.77.391-1.03.79-2.05 1.2-3.07 1.28-.2 2.56-.4 3.85-.6.44-1.38 1.7-2.83.95-4.33-2.551-5.97-5.401-11.8-8.031-17.74zm23.35-.03c6.28-.14 12.55-.07 18.83-.05-.05 8.58-.021 17.15-.021 25.73h-3.83c-.02-7.26.16-14.52-.12-21.77-3.649.02-7.289.02-10.93-.01-.25 7.26-.08 14.53-.12 21.79-1.27-.02-2.529-.03-3.8-.05-.019-8.54.001-17.09-.009-25.64zm24 .04c1.27-.05 2.54-.1 3.819-.14-.02 3.561-.02 7.13 0 10.69 4.03.04 8.061.04 12.101 0 .02-3.56.02-7.13 0-10.69 1.27.04 2.54.09 3.819.14-.01 8.53.011 17.07-.01 25.6-1.27.02-2.54.03-3.8.05.01-3.77.01-7.53-.021-11.3-4.029-.04-8.06-.04-12.079.01-.03 3.76-.03 7.521-.021 11.29-1.27-.02-2.54-.03-3.8-.05-.019-8.53.002-17.07-.008-25.6zm62-.03c5.14.3 11.659-1.66 15.579 2.68 2.601 2.88 1.4 6.94-.56 9.8 3.851 3.19 3.87 9.79-.79 12.24-4.46 1.85-9.52.65-14.22.9-.02-8.54.001-17.08-.009-25.62m3.8 3.92c0 2.24.01 4.47.02 6.71 3.17-.33 8.61 1.33 9.101-3.26-.222-4.82-5.892-3.22-9.121-3.45m.019 10.42c-.01 2.52-.02 5.05-.02 7.57 2.35.01 4.72.16 7.06-.15 3.29-.49 3.69-5.77.641-6.92-2.46-.83-5.13-.4-7.681-.5zM159.31 65.26c10.351-9.15 27.49-8.94 37.36.86-1.771 1.84-3.57 3.65-5.38 5.46-7.42-6.61-19.54-7.17-26.851-.12-9.27 8.03-8.29 24.36 1.99 31.101 10.03 7.649 27.61 2.479 29.14-10.91-6.01-.301-12.04-.07-18.06-.181-.01-2.649-.01-5.29 0-7.939 8.56-.05 17.12-.07 25.68.02 2.021 11.53-3.64 24.58-15.149 28.58-12.66 4.81-28.301-.39-34.9-12.38-6.66-11.041-3.77-26.381 6.17-34.491zm264.75-4.79c2.68.021 5.36.021 8.05 0 .3 17.421.11 34.86.09 52.29-2.729-.01-5.449 0-8.17.01-.03-17.43-.09-34.87.03-52.3zm-101.29.03c2.67 0 5.35.02 8.02.09-.09 17.391 0 34.77-.039 52.16-2.66 0-5.301 0-7.95.01-.102-17.42-.051-34.84-.031-52.26zm61.23.03c6.659 0 13.319-.13 19.979.01 8.57.09 16.6 7.7 16.07 16.479.229 8.2-6.99 15.24-14.96 15.871-4.28.279-8.57.049-12.851.14 0 6.569.05 13.149-.04 19.729-2.729-.01-5.449 0-8.17.01-.069-17.41-.008-34.83-.028-52.239m8.23 7.51c.021 5.78.05 11.56-.021 17.33 7.23.51 19.19 1.72 19.82-8.39-.109-10.48-12.469-9.41-19.799-8.94zM219.41 78.641c6.76-1.57 14.43.689 18.649 6.34 5.66 7.22 4.62 18.72-2.45 24.64-8.229 7.34-23.12 4.86-27.85-5.33-5.319-9.751.541-23.551 11.651-25.65m.89 7.449c-8.08 2.95-8.521 15.77-.86 19.48 6.12 3.399 14.011-1.79 14.15-8.57 1.11-7.061-6.45-13.891-13.29-10.91zm38.09-7.5c6.51-1.39 13.85.63 18.09 5.91 6.55 7.65 4.96 20.84-3.64 26.311-8.64 6.08-22.311 2.77-26.59-7.08-4.76-9.851 1.14-23.111 12.14-25.141m.01 7.81c-6.97 3.26-7.649 14.199-1.29 18.439 5.021 3.91 12.971.96 14.67-5.029 3.57-7.88-5.3-17.74-13.38-13.41zm25.06 9.61c-.86-12.97 16.109-23.64 26.399-14.29.1-.63.28-1.89.37-2.52 2.51.04 5.01.05 7.521.06-.051 11.2.109 22.4-.07 33.59-.061 6.851-3.86 14.11-10.811 16.051-8.58 3.069-18.649-1.301-22.159-9.73 2.279-.98 4.569-1.939 6.85-2.9 2.51 4.2 7.21 7.75 12.33 5.84 5.229-1.34 6.51-7.289 6.229-11.969-10.269 9.588-27.659-.932-26.659-14.132m13.88-9.699c-7.29 3.35-7.84 15.159-.72 19.01 5.26 3.46 12.59-.41 13.64-6.351 2.41-7.44-5.13-16.659-12.92-12.659zm47.83-7.081c9.489-4.061 20 2.89 22.18 12.449-7.87 3.33-15.79 6.521-23.67 9.811 3.399 7.01 13.22 6.25 17.35.35 1.93 1.38 4.41 2.28 5.82 4.24-5.79 9.5-20.85 10.39-28.021 2.05-7.889-8.54-5.049-24.92 6.341-28.9m-3.15 15.92c5.48-1.84 10.77-4.221 16.07-6.53-5.34-7.12-15.98-1.44-16.07 6.53zm94.96-8.82c5.28-12.29 27.15-10.68 29.72 2.779.69 7.86.141 15.781.271 23.66-2.521-.01-5.03-.02-7.54 0a254.3 254.3 0 0 1-.37-3.02c-4.97 4.939-13.38 5.42-18.84 1.04-5.22-3.92-5.46-12.75-.24-16.78 5.49-4.52 13.21-4.31 19.62-2.09-1.36-7.39-11.67-8.6-15.79-2.87-2.281-.908-4.561-1.819-6.831-2.719m7.4 17.21c4.06 6.46 14.75 1.771 14.859-5.3-4.979-2.131-15.679-2.42-14.859 5.3zm22.89-24.149c2.88-.131 5.77-.16 8.66-.171 3.27 7.341 5.779 15 9.399 22.19 3.061-7.36 5.78-14.84 8.86-22.19 2.96.021 5.93.03 8.91.061-7.061 16.39-14.311 32.71-21.311 49.13-2.83.08-5.67.1-8.5.07 2.53-5.871 5.221-11.681 7.83-17.521-4.518-10.569-9.218-21.06-13.848-31.569z"/></g><path fill="#01EE76" d="M22.13 18.17c2.96-1.19 6.24-1.17 8.96.58 20.34 11.48 40.66 23.01 60.93 34.62-5.92 5.71-11.5 11.77-17.569 17.319-.19.17-.561.5-.74.67C57.2 52.99 38.09 37 22.13 18.17z"/><path fill="#00D3FF" d="M20.02 25.94c-.14-2.77.88-5.35 2.11-7.77C38.09 37 57.2 52.99 73.71 71.359 56.42 88.15 39.59 105.42 22.5 122.42l-.641.28c-1.739-2.12-1.79-5.07-1.89-7.681.071-29.689.001-59.389.051-89.079z"/><path fill="#FFCB00" d="M74.45 70.689C80.52 65.14 86.1 59.08 92.02 53.37c7.28 4.26 14.88 8.03 21.91 12.7 3.86 2.35 3.2 8.21-.62 10.25-6.939 4.32-14.2 8.14-21.31 12.199-5.99-5.799-12-11.599-17.55-17.83z"/><path fill="#F3324A" d="M73.71 71.359c.18-.17.55-.5.74-.67C80 76.92 86.01 82.72 92 88.52c-20.07 11.44-40.21 22.76-60.28 34.21-2.8 1.68-6.68 2.859-9.4.359l.181-.67C39.59 105.42 56.42 88.15 73.71 71.359z"/></svg>